<svg width="17px" height="17px" viewBox="0 0 17 17" version="1.1" xmlns="http://www.w3.org/2000/svg" xmlns:xlink="http://www.w3.org/1999/xlink">
    <g id="icons" stroke="none" stroke-width="1" fill="none" fill-rule="evenodd">
        <path d="M6.30044383,15.3261492 C6.1301748,14.8473462 5.68752176,14.6639454 5.22850469,14.8821375 L5.58243095,14.7138999 C2.97151157,15.9549908 1.04471828,14.0291004 2.28610006,11.417569 L2.11786252,11.7714953 C2.336029,11.3125321 2.15270996,10.8698452 1.67385079,10.6995562 L2.04307636,10.8308579 C-0.680706209,9.86224289 -0.681344677,7.13798415 2.04307636,6.16914207 L1.67385079,6.30044383 C2.15265381,6.1301748 2.33605459,5.68752176 2.11786252,5.22850469 L2.28610006,5.58243095 C1.0450092,2.97151157 2.97089956,1.04471828 5.58243095,2.28610006 L5.22850469,2.11786252 C5.68746794,2.336029 6.13015484,2.15270996 6.30044383,1.67385079 L6.16914207,2.04307636 C7.13775711,-0.680706209 9.86201585,-0.681344677 10.8308579,2.04307636 L10.6995562,1.67385079 C10.8698252,2.15265381 11.3124782,2.33605459 11.7714953,2.11786252 L11.417569,2.28610006 C14.0284884,1.0450092 15.9552817,2.97089956 14.7138999,5.58243095 L14.8821375,5.22850469 C14.663971,5.68746794 14.84729,6.13015484 15.3261492,6.30044383 L14.9569236,6.16914207 C17.6807062,7.13775711 17.6813447,9.86201585 14.9569236,10.8308579 L15.3261492,10.6995562 C14.8473462,10.8698252 14.6639454,11.3124782 14.8821375,11.7714953 L14.7138999,11.417569 C15.9549908,14.0284884 14.0291004,15.9552817 11.417569,14.7138999 L11.7714953,14.8821375 C11.3125321,14.663971 10.8698452,14.84729 10.6995562,15.3261492 L10.8308579,14.9569236 C9.86224289,17.6807062 7.13798415,17.6813447 6.16914207,14.9569236 L6.30044383,15.3261492 Z M7.66581979,14.1984558 C8.12569474,15.4916417 8.8707729,15.491077 9.33044701,14.1984558 L9.20436412,14.5530057 C9.66423906,13.2598198 11.0411342,12.6899727 12.2801941,13.2789552 L11.9403354,13.1174046 C13.1799367,13.7066445 13.7063871,13.1793953 13.1174046,11.9403354 L13.2789552,12.2801941 C12.6897153,11.0405929 13.2603845,9.66403823 14.5530057,9.20436412 L14.1984558,9.33044701 C15.4916417,8.87057207 15.491077,8.12549391 14.1984558,7.66581979 L14.5530057,7.79190269 C13.2598198,7.33202774 12.6899727,5.95513257 13.2789552,4.71607266 L13.1174046,5.05593139 C13.7066445,3.81633014 13.1793953,3.28987966 11.9403354,3.8788622 L12.2801941,3.71731161 C11.0405929,4.30655148 9.66403823,3.7358823 9.20436412,2.4432611 L9.33044701,2.79781103 C8.87057207,1.50462507 8.12549391,1.50518982 7.66581979,2.79781103 L7.79190269,2.4432611 C7.33202774,3.73644705 5.95513257,4.30629415 4.71607266,3.71731161 L5.05593139,3.8788622 C3.81633014,3.28962233 3.28987966,3.81687149 3.8788622,5.05593139 L3.71731161,4.71607266 C4.30655148,5.95567391 3.7358823,7.33222858 2.4432611,7.79190269 L2.79781103,7.66581979 C1.50462507,8.12569474 1.50518982,8.8707729 2.79781103,9.33044701 L2.4432611,9.20436412 C3.73644705,9.66423906 4.30629415,11.0411342 3.71731161,12.2801941 L3.8788622,11.9403354 C3.28962233,13.1799367 3.81687149,13.7063871 5.05593139,13.1174046 L4.71607266,13.2789552 C5.95567391,12.6897153 7.33222858,13.2603845 7.79190269,14.5530057 L7.66581979,14.1984558 Z M8.5,11 C7.11928813,11 6,9.88071187 6,8.5 C6,7.11928813 7.11928813,6 8.5,6 C9.88071187,6 11,7.11928813 11,8.5 C11,9.88071187 9.88071187,11 8.5,11 Z M8.5,10 C9.32842712,10 10,9.32842712 10,8.5 C10,7.67157288 9.32842712,7 8.5,7 C7.67157288,7 7,7.67157288 7,8.5 C7,9.32842712 7.67157288,10 8.5,10 Z" id="settings" fill="#000000"></path>
    </g>
</svg>